<?xml version="1.0" encoding="utf-8"?><svg viewBox="0 0 512 512" xmlns="http://www.w3.org/2000/svg" xmlns:xlink="http://www.w3.org/1999/xlink"><style>:root>svg{display:none}:root>svg:target{display:block}</style><svg viewBox="0 0 512 512" id="004-dinosaur" xmlns="http://www.w3.org/2000/svg"><path d="M229.084 481.147a23.253 23.253 0 015.248-14.746v-50.467c-17.247-3.894-33.101-11.455-46.706-21.819v63.678h-15.629c-12.897 0-23.353 10.456-23.353 23.353S159.1 504.5 171.997 504.5h38.982c9.019 0 16.839-5.117 20.729-12.602a23.242 23.242 0 01-2.624-10.751z" fill="#17d9c3"/><path d="M268.066 418.728v39.066h-15.629c-12.897 0-23.353 10.456-23.353 23.353S239.54 504.5 252.437 504.5h38.982c12.897 0 23.353-10.456 23.353-23.353v-74.633a120.88 120.88 0 01-46.706 12.214zM139.65 240.966H96.731c-14.586 0-26.411 11.825-26.411 26.411 0 14.586 11.825 26.411 26.411 26.411h42.919zM417.291 431.404c-51.914-38.222-38.577-102.755-38.575-102.765-9.094 34.241-32.752 62.543-63.944 77.875 38.183 38.183 71.348 47.839 94.693 48.125 12.534.154 17.921-15.803 7.826-23.235z" fill="#17d9c3"/><path d="M261.219 55.434c-67.141 0-121.569 54.428-121.569 121.569v120.352c0 67.141 54.428 121.569 121.569 121.569s121.569-54.428 121.569-121.569V177.003c-.001-67.141-54.429-121.569-121.569-121.569z" fill="#88f8d8"/><path d="M317.401 301.288h-51.913c-18.698 0-33.91-15.212-33.91-33.911 0-18.698 15.212-33.911 33.91-33.911h51.913c4.143 0 7.5 3.358 7.5 7.5s-3.357 7.5-7.5 7.5h-51.913c-10.427 0-18.91 8.483-18.91 18.911s8.483 18.911 18.91 18.911h51.913c4.143 0 7.5 3.358 7.5 7.5s-3.357 7.5-7.5 7.5z" fill="#007ea8"/><circle cx="288.511" cy="128.416" fill="#007ea8" r="10.648"/><circle cx="188.141" cy="128.416" fill="#007ea8" r="10.648"/><path d="M187.626 394.115v35.678a150.446 150.446 0 0046.706 16.721v-30.58c-17.247-3.894-33.101-11.455-46.706-21.819zM268.066 418.728v30.014a150.564 150.564 0 0046.706-9.62v-32.608a120.88 120.88 0 01-46.706 12.214z" fill="#007ea8"/><g fill="#ffff6f"><path d="M261.218 55.434c11.798 0 23.201 1.687 33.988 4.822L261.219 7.5l-33.987 52.756a121.588 121.588 0 0133.986-4.822zM361.447 108.198l.718.482 1.317-70.043-58.103 25.072c22.863 8.918 42.359 24.558 56.068 44.489z"/><path d="M382.768 175.433l52.341-45.843-72.944-20.91.315 1.043c12.556 18.861 19.98 41.427 20.288 65.71zM382.787 177.003v75.881l58.893-37.94zM382.787 252.884v44.47c0 10.817-1.42 21.302-4.072 31.284l60.828-34.687z"/></g><path d="M449.18 214.944a7.501 7.501 0 00-3.438-6.305l-51.57-33.223 45.879-40.183a7.5 7.5 0 00-2.875-12.851l-67.402-19.322 1.209-64.281a7.5 7.5 0 00-10.47-7.028l-58.104 25.072c-.152.065-.289.153-.435.228a7.364 7.364 0 00-.462-.855L267.523 3.438a7.497 7.497 0 00-12.609 0l-33.987 52.756a7.502 7.502 0 008.398 11.264 114.218 114.218 0 0131.894-4.524c26.07 0 31.528 6.994 37.397 3.998a7.491 7.491 0 004.037 3.764c42.35 16.52 72.014 57.352 72.615 104.833.003.262.036.519.066.775-.069.732-.047 120.948-.047 121.05 0 9.938-1.285 19.815-3.82 29.359a7.5 7.5 0 0010.964 8.44l60.828-34.687a7.497 7.497 0 00.681-12.591l-47.863-34.632 49.664-31.995a7.497 7.497 0 003.439-6.304zM261.219 47.934c-6.017 0-12.005.415-17.927 1.24l17.927-27.826 17.927 27.826a129.915 129.915 0 00-17.927-1.24zm62.421 16.063l32.125-13.862-.719 38.223a128.447 128.447 0 00-31.406-24.361zm96.181 69.013l-30.674 26.865a128.323 128.323 0 00-11.685-39.008zm-30.606 181.008a129.927 129.927 0 001.072-16.663v-29.786l35.429 25.635zm1.072-74.887v-48.375l37.544 24.188z" fill="#f90"/><path d="M421.737 425.364c-19.736-14.531-31.752-34.823-35.713-60.31-3.02-19.43.008-34.759.038-34.907l.002-.014a128.84 128.84 0 004.222-32.779V177.003c0-71.169-57.899-129.069-129.068-129.069s-129.069 57.9-129.069 129.069v56.463H96.73c-18.698 0-33.91 15.212-33.91 33.911s15.212 33.911 33.91 33.911h35.484c1.17 38.88 19.618 73.487 47.911 96.399v52.607h-8.129c-17.013 0-30.854 13.841-30.854 30.853S154.984 512 171.997 512h38.981c7.827 0 15.16-2.933 20.74-8.011 5.48 4.975 12.752 8.011 20.719 8.011h38.981c17.013 0 30.854-13.841 30.854-30.853v-57.416c22.319 19.292 52.732 37.985 87.101 38.408l.271.001c8.925 0 16.497-5.437 19.339-13.912 2.863-8.541.019-17.516-7.246-22.864zM77.82 267.377c0-10.427 8.483-18.911 18.91-18.911h35.419v37.822H96.73c-10.426 0-18.91-8.483-18.91-18.911zm69.329 29.977V183.843l17.311-12.458 20.43 14.703a7.498 7.498 0 008.762 0l20.429-14.703 20.43 14.703a7.498 7.498 0 008.762 0l20.43-14.703 20.43 14.703c3.375 2.43 8.06 1.641 10.468-1.707a7.499 7.499 0 00-1.706-10.468l-24.811-17.856a7.498 7.498 0 00-8.762 0l-20.43 14.703-20.43-14.703a7.498 7.498 0 00-8.762 0l-20.429 14.703-20.43-14.703a7.498 7.498 0 00-8.762 0l-12.287 8.843c6.063-57.229 54.616-101.967 113.427-101.967 62.897 0 114.068 51.171 114.068 114.069v120.352c0 62.839-51.109 114.069-114.068 114.069-62.899 0-114.07-51.171-114.07-114.069zm113.416 129.061v23.879h-8.128c-3.724 0-7.297.664-10.605 1.878v-27.205a129.434 129.434 0 0018.733 1.448zM210.979 497h-38.981c-8.741 0-15.854-7.112-15.854-15.853s7.112-15.853 15.854-15.853h15.629a7.5 7.5 0 007.5-7.5v-49.551a127.194 127.194 0 0031.706 13.544v42.151a31.045 31.045 0 00-5.248 17.208c0 3.219.53 6.692 1.677 10.023A15.804 15.804 0 01210.979 497zm96.293-15.853c0 8.741-7.112 15.853-15.854 15.853h-38.981c-8.785 0-15.854-7.207-15.854-15.853 0-8.874 7.235-15.853 15.854-15.853h15.628a7.5 7.5 0 007.5-7.5V425.63c10.541-1.159 21.472-3.752 31.707-7.67zM414.76 443.46c-.293.875-1.518 3.727-5.203 3.679-32.409-.398-61.565-20.036-82.186-38.94a129.221 129.221 0 0043.477-42.672c3.142 22.63 13.369 50.839 41.997 71.916 2.846 2.097 2.288 4.907 1.915 6.017z" fill="#007ea8"/></svg><svg viewBox="0 0 512 512" id="009-flamingo" xmlns="http://www.w3.org/2000/svg"><path d="M236.198 457.813h15.622v-63.578c14.504 8.038 30.237 13.775 46.687 16.655v55.526a23.241 23.241 0 00-5.245 14.74c0 3.877.951 7.529 2.623 10.747-3.889 7.483-11.705 12.597-20.721 12.597h-38.966c-12.892 0-23.344-10.452-23.344-23.344.001-12.892 10.452-23.343 23.344-23.343z" fill="#f90"/><path d="M316.606 457.813h15.622v-45.132a139.55 139.55 0 0012.788-1.473c11.332-1.84 22.759-4.914 33.9-9.084v79.032c0 12.892-10.451 23.344-23.344 23.344h-38.966c-12.892 0-23.344-10.452-23.344-23.344.001-12.892 10.452-23.343 23.344-23.343z" fill="#f90"/><path d="M349.821 440.808a170.11 170.11 0 01-17.593 1.915V412.68a139.55 139.55 0 0012.788-1.473c11.332-1.84 22.759-4.914 33.9-9.084v31.7c-9.592 3.048-19.343 5.402-29.095 6.985zM298.508 410.89v30.377c-16.039-2.288-31.719-6.83-46.687-13.484v-33.549c14.504 8.038 30.237 13.775 46.687 16.656z" fill="#f95116"/><path d="M306.718 256.421c-44.809 1.607-72.155 36.309-72.155 36.309l-.003.001c-8.515-24.134-8.676-57.939-7.292-75.587a106.849 106.849 0 01-28.593 3.879 106.759 106.759 0 01-29.988-4.279v1.964c-.944 6.543-2.824 22.891-1.629 43.076 5.229 88.352 88.326 163.975 177.957 149.424 32.532-5.282 65.849-20.705 90.917-43.178h-93.335c-34.009 0-61.578-27.569-61.578-61.578 0-20.617 10.143-38.854 25.699-50.031z" fill="#ff9bff"/><path d="M198.675 251.011a136.852 136.852 0 01-31.997-3.798c.082-13.301 1.305-23.628 2.009-28.505v-1.964a106.759 106.759 0 0029.988 4.279c9.905 0 19.492-1.355 28.593-3.879-.617 7.862-.924 18.931-.326 30.921a136.727 136.727 0 01-28.267 2.946z" fill="#e207b9"/><path d="M93.948 93.435v.01c4.642-1.033 7.857-1.32 11.335-1.32h46.621c31.036 0 53.158 25.382 53.158 53.159 0 24.47-20.872 43.752-45.282 41.813l-42.153-3.348c19.572 22.811 48.62 37.275 81.047 37.275 58.956 0 106.757-47.801 106.757-106.767C305.432 55.301 257.632 7.5 198.676 7.5c-51.839 0-95.032 36.935-104.728 85.935z" fill="#ffceff"/><path d="M80.384 180.78l37.245 2.969 42.153 3.348c24.41 1.939 45.282-17.343 45.282-41.813-27.289 0-50.04 3.459-68.872 8.726-21.912 5.998-40.834 15.494-55.808 26.77z" fill="#ffff6f"/><path d="M56.683 132.849c40.563-13.635 67.792 8.336 79.508 21.161 18.832-5.268 41.583-8.726 68.872-8.726 0-28.312-22.656-53.159-53.158-53.159h-46.621c-3.343 0-6.712.291-11.335 1.32v-.01c-19.043 4.478-33.837 19.992-37.266 39.414z" fill="#ffff6f"/><circle cx="134.451" cy="78.133" fill="#e207b9" r="12.294"/><circle cx="222.473" cy="78.133" fill="#e207b9" r="12.294"/><path d="M342.598 244.873c62.684 0 113.499 50.815 113.499 113.498a9.658 9.658 0 01-9.658 9.658h-103.84c-34.009 0-61.578-27.569-61.578-61.578-.002-34.008 27.568-61.578 61.577-61.578z" fill="#ffceff"/><path d="M55.904 141.495v26.999c0 12.605 14.434 19.902 24.48 12.285 14.974-11.275 33.896-20.772 55.807-26.769-11.715-12.825-38.944-34.796-79.508-21.161-.574 3.302-.779 6.141-.779 8.646z" fill="#f90"/><path d="M383.189 395.961a7.496 7.496 0 00-6.902-.861c-10.747 4.022-21.673 6.951-32.474 8.705a132.666 132.666 0 01-12.1 1.394 7.5 7.5 0 00-6.985 7.482v37.632h-8.122c-3.722 0-7.292.663-10.599 1.876V410.89a7.501 7.501 0 00-6.206-7.388c-15.313-2.681-30.232-8.006-44.346-15.828a7.498 7.498 0 00-11.135 6.56v56.078h-8.122c-17.007 0-30.844 13.836-30.844 30.844S219.191 512 236.198 512h38.966a30.734 30.734 0 0020.732-8.008c5.478 4.973 12.747 8.008 20.711 8.008h38.966c17.007 0 30.844-13.836 30.844-30.844v-79.032a7.5 7.5 0 00-3.228-6.163zM275.164 497h-38.966c-8.736 0-15.844-7.107-15.844-15.844s7.107-15.844 15.844-15.844h15.622a7.5 7.5 0 007.5-7.5v-51.387c10.268 4.708 20.871 8.266 31.688 10.63v46.898a30.953 30.953 0 00-5.245 17.202c0 3.389.582 6.836 1.675 10.018A15.786 15.786 0 01275.164 497zm96.252-15.844c0 8.736-7.107 15.844-15.844 15.844h-38.966c-8.865 0-15.844-7.294-15.844-15.844 0-8.622 7.004-15.844 15.844-15.844h15.622a7.5 7.5 0 007.5-7.5v-38.297c2.177-.254 4.345-.556 6.489-.904 8.382-1.361 16.82-3.366 25.198-5.985z" fill="#f95116"/><path d="M342.598 237.373a68.676 68.676 0 00-38.367 11.667c-31.136 1.825-53.976 18.1-65.989 29.071-4.167-18.998-4.522-41.165-3.816-55.324 45.544-15.043 78.505-58.007 78.505-108.531C312.932 51.255 261.677 0 198.676 0c-54.4 0-101.538 38.683-112.085 91.979a7.498 7.498 0 008.985 8.788c4.257-.947 6.959-1.141 9.707-1.141h46.621c12.591 0 24.241 4.92 32.803 13.853 8.17 8.523 12.855 20.116 12.855 31.806 0 9.718-3.933 18.702-11.073 25.298-7.144 6.599-16.417 9.808-26.114 9.038l-42.152-3.348a7.51 7.51 0 00-7.279 4.077 7.502 7.502 0 00.993 8.284 114.268 114.268 0 0048.757 33.39c-.965 8.226-2.146 22.902-1.123 40.205 1.405 23.737 8.033 46.771 19.701 68.46 11.138 20.703 26.717 39.41 45.055 54.099 36.126 28.939 79.46 40.715 121.891 33.825 33.59-5.453 67.145-21.102 92.542-43.081h7.678c9.461 0 17.158-7.697 17.158-17.158.001-66.721-54.28-121.001-120.998-121.001zm-204.491-44.474l21.318-1.525c13.7 1.089 24.881-2.307 34.986-11.642 10.102-9.331 13.745-20.363 13.745-34.112 0-33.447-23.405-58.841-56.853-58.841l-46.02-2.154c-.464 0-.921.005-1.373.015C116.681 43.721 154.981 15 198.676 15c54.729 0 99.256 44.526 99.256 99.256 0 61.159-55.809 110.044-119.646 97.154a99.132 99.132 0 01-40.179-18.511zm205.706 210.906c-38.467 6.242-77.575-4.666-110.109-30.727-34.54-27.668-56.655-69.439-59.158-111.738-.869-14.679-.047-27.291.783-35.214 14.353 2.984 29.479 3.17 43.911.544-.68 20.925 1.099 48.293 8.248 68.556 1.962 5.565 9.293 6.767 12.956 2.159.206-.259 17.076-21.098 45.07-29.784a69.007 69.007 0 00-11.995 38.851c0 38.09 30.988 69.078 69.078 69.078h71.584c-20.861 14.22-45.598 24.254-70.368 28.275zm102.625-43.275H342.597c-51.636 0-74.269-66.524-32.004-97.635 8.968-6.607 20.036-10.522 32.004-10.522 58.448 0 105.999 47.551 105.999 105.999a2.16 2.16 0 01-2.158 2.158z" fill="#e207b9"/><path d="M151.904 84.625h-46.621c-4.244 0-8.026.424-12.574 1.413a8.249 8.249 0 00-.478.096 56.74 56.74 0 00-42.934 45.411 7.499 7.499 0 009.775 8.413c28.368-9.536 49.449.146 62.635 10.716-16.941 5.93-32.601 14.147-45.836 24.114a7.5 7.5 0 003.916 13.467l79.399 6.318c13.683 1.087 27.354-3.619 37.479-12.973 10.102-9.331 15.896-22.567 15.896-36.316.002-33.447-27.209-60.659-60.657-60.659zm34.585 85.957c-7.144 6.599-16.417 9.808-26.114 9.038l-57.107-4.54c28.125-15.085 61.087-21.267 93.235-22.173l.228-.005c-1.505 6.74-5.013 12.85-10.242 17.68zm10.001-32.678c-19.641.527-39.236 2.921-57.969 7.716-10.044-9.904-29.531-24.55-56.917-24.55a80.18 80.18 0 00-13.515 1.165 41.762 41.762 0 0127.236-21.418c.084-.016.168-.033.251-.051 3.643-.81 6.455-1.141 9.707-1.141h46.621c22.657 0 41.514 16.59 45.06 38.261-.159.004-.315.014-.474.018z" fill="#f90"/><path d="M61.113 188.974c-7.84-3.894-12.71-11.741-12.71-20.479v-26.999c0-3.24.292-6.489.892-9.934a7.5 7.5 0 014.999-5.822c45.734-15.373 76.381 11.112 87.435 23.212a7.5 7.5 0 01-3.557 12.293c-19.917 5.452-38.339 14.278-53.276 25.526-6.901 5.231-16.024 6.057-23.783 2.203zm2.291-20.48c0 3.048 1.639 5.682 4.383 7.045 1.289.641 4.654 1.851 8.066-.736 13.252-9.979 28.913-18.204 45.855-24.134-12.487-10.008-32.062-19.22-58.197-12.065z" fill="#f95116"/></svg></svg>